<svg id="visual" viewBox="0 0 900 600" width="900" height="600" xmlns="http://www.w3.org/2000/svg" xmlns:xlink="http://www.w3.org/1999/xlink" version="1.1"><g stroke-width="1" stroke-linejoin="bevel"><path d="M408.7 243L549.3 246L494.3 149Z" fill="#f99299" stroke="#f99299"></path><path d="M549.3 246L611.9 206L494.3 149Z" fill="#f28792" stroke="#f28792"></path><path d="M408.7 243L538.3 362L549.3 246Z" fill="#ef828f" stroke="#ef828f"></path><path d="M549.3 246L649.9 368L611.9 206Z" fill="#f48a94" stroke="#f48a94"></path><path d="M611.9 206L609.9 140L494.3 149Z" fill="#f68d96" stroke="#f68d96"></path><path d="M548.3 0L359.7 101L494.3 149Z" fill="#f99299" stroke="#f99299"></path><path d="M494.3 149L359.7 101L408.7 243Z" fill="#f08491" stroke="#f08491"></path><path d="M223.1 242L382.7 389L408.7 243Z" fill="#fc989c" stroke="#fc989c"></path><path d="M408.7 243L382.7 389L538.3 362Z" fill="#f68d96" stroke="#f68d96"></path><path d="M549.3 482L649.9 368L538.3 362Z" fill="#f28792" stroke="#f28792"></path><path d="M538.3 362L649.9 368L549.3 246Z" fill="#f99299" stroke="#f99299"></path><path d="M611.9 206L755.4 117L609.9 140Z" fill="#f79097" stroke="#f79097"></path><path d="M609.9 140L548.3 0L494.3 149Z" fill="#fc989c" stroke="#fc989c"></path><path d="M359.7 101L223.1 242L408.7 243Z" fill="#f28792" stroke="#f28792"></path><path d="M548.3 0L346.7 0L359.7 101Z" fill="#f08491" stroke="#f08491"></path><path d="M359.7 101L241.1 93L223.1 242Z" fill="#f28792" stroke="#f28792"></path><path d="M609.9 140L628.9 0L548.3 0Z" fill="#fc989c" stroke="#fc989c"></path><path d="M755.4 117L628.9 0L609.9 140Z" fill="#f79097" stroke="#f79097"></path><path d="M382.7 389L549.3 482L538.3 362Z" fill="#fa959a" stroke="#fa959a"></path><path d="M346.7 0L241.1 93L359.7 101Z" fill="#f99299" stroke="#f99299"></path><path d="M808.4 274L755.4 117L611.9 206Z" fill="#f68d96" stroke="#f68d96"></path><path d="M287.1 470L372.7 500L382.7 389Z" fill="#f68d96" stroke="#f68d96"></path><path d="M382.7 389L372.7 500L549.3 482Z" fill="#f08491" stroke="#f08491"></path><path d="M549.3 482L670.9 456L649.9 368Z" fill="#f68d96" stroke="#f68d96"></path><path d="M649.9 368L808.4 274L611.9 206Z" fill="#fc989c" stroke="#fc989c"></path><path d="M223.1 242L226.1 388L382.7 389Z" fill="#eb7c8c" stroke="#eb7c8c"></path><path d="M226.1 388L287.1 470L382.7 389Z" fill="#eb7c8c" stroke="#eb7c8c"></path><path d="M783.4 365L808.4 274L649.9 368Z" fill="#eb7c8c" stroke="#eb7c8c"></path><path d="M670.9 456L783.4 365L649.9 368Z" fill="#ef828f" stroke="#ef828f"></path><path d="M346.7 0L222.1 0L241.1 93Z" fill="#fc989c" stroke="#fc989c"></path><path d="M241.1 93L132.6 132L223.1 242Z" fill="#f79097" stroke="#f79097"></path><path d="M755.4 117L745.4 0L628.9 0Z" fill="#ef828f" stroke="#ef828f"></path><path d="M900 0L745.4 0L755.4 117Z" fill="#f99299" stroke="#f99299"></path><path d="M222.1 0L132.6 132L241.1 93Z" fill="#fa959a" stroke="#fa959a"></path><path d="M223.1 242L131.6 335L226.1 388Z" fill="#f99299" stroke="#f99299"></path><path d="M115.6 262L131.6 335L223.1 242Z" fill="#f28792" stroke="#f28792"></path><path d="M226.1 388L159.6 505L287.1 470Z" fill="#f99299" stroke="#f99299"></path><path d="M132.6 132L115.6 262L223.1 242Z" fill="#f28792" stroke="#f28792"></path><path d="M549.3 482L604.9 600L670.9 456Z" fill="#fa959a" stroke="#fa959a"></path><path d="M670.9 456L778.4 478L783.4 365Z" fill="#f79097" stroke="#f79097"></path><path d="M399.7 600L553.3 600L549.3 482Z" fill="#f08491" stroke="#f08491"></path><path d="M399.7 600L549.3 482L372.7 500Z" fill="#f48a94" stroke="#f48a94"></path><path d="M233.1 600L372.7 500L287.1 470Z" fill="#f79097" stroke="#f79097"></path><path d="M233.1 600L399.7 600L372.7 500Z" fill="#ed7f8e" stroke="#ed7f8e"></path><path d="M755.4 600L778.4 478L670.9 456Z" fill="#f28792" stroke="#f28792"></path><path d="M900 337L900 220L808.4 274Z" fill="#fc989c" stroke="#fc989c"></path><path d="M553.3 600L604.9 600L549.3 482Z" fill="#f08491" stroke="#f08491"></path><path d="M900 337L808.4 274L783.4 365Z" fill="#f68d96" stroke="#f68d96"></path><path d="M808.4 274L900 157L755.4 117Z" fill="#fc989c" stroke="#fc989c"></path><path d="M900 220L900 157L808.4 274Z" fill="#eb7c8c" stroke="#eb7c8c"></path><path d="M0 385L159.6 505L131.6 335Z" fill="#f08491" stroke="#f08491"></path><path d="M131.6 335L159.6 505L226.1 388Z" fill="#f79097" stroke="#f79097"></path><path d="M900 494L900 337L783.4 365Z" fill="#ef828f" stroke="#ef828f"></path><path d="M222.1 0L96.6 0L132.6 132Z" fill="#f99299" stroke="#f99299"></path><path d="M132.6 132L0 258L115.6 262Z" fill="#f28792" stroke="#f28792"></path><path d="M159.6 505L233.1 600L287.1 470Z" fill="#fa959a" stroke="#fa959a"></path><path d="M604.9 600L755.4 600L670.9 456Z" fill="#ed7f8e" stroke="#ed7f8e"></path><path d="M778.4 478L900 494L783.4 365Z" fill="#f79097" stroke="#f79097"></path><path d="M900 157L900 0L755.4 117Z" fill="#ef828f" stroke="#ef828f"></path><path d="M115.6 262L0 258L131.6 335Z" fill="#eb7c8c" stroke="#eb7c8c"></path><path d="M0 105L0 258L132.6 132Z" fill="#f28792" stroke="#f28792"></path><path d="M96.6 0L0 105L132.6 132Z" fill="#f48a94" stroke="#f48a94"></path><path d="M900 600L900 494L778.4 478Z" fill="#f79097" stroke="#f79097"></path><path d="M0 484L144.6 600L159.6 505Z" fill="#ef828f" stroke="#ef828f"></path><path d="M159.6 505L144.6 600L233.1 600Z" fill="#ef828f" stroke="#ef828f"></path><path d="M0 258L0 385L131.6 335Z" fill="#ef828f" stroke="#ef828f"></path><path d="M96.6 0L0 0L0 105Z" fill="#ef828f" stroke="#ef828f"></path><path d="M0 385L0 484L159.6 505Z" fill="#ed7f8e" stroke="#ed7f8e"></path><path d="M755.4 600L900 600L778.4 478Z" fill="#f99299" stroke="#f99299"></path><path d="M0 484L0 600L144.6 600Z" fill="#f68d96" stroke="#f68d96"></path></g></svg>